<?xml version="1.0" encoding="utf-8"?>
<!DOCTYPE svg PUBLIC "-//W3C//DTD SVG 1.0//EN" "http://www.w3.org/TR/2001/REC-SVG-20010904/DTD/svg10.dtd">
<svg version="1.0" xmlns="http://www.w3.org/2000/svg" width="500px" height="500px" viewBox="0 0 500 500" preserveAspectRatio="xMidYMid meet">
 <g fill="#000000">
  <path d="M232 419 c-46.8 -4.5 -90.3 -28.7 -118.5 -66.1 l-7.3 -9.8 -4.9 11.2 -5 11.2 -14.1 0.3 -14.2 0.3 0 -3.9 c0 -2.8 3.3 -11.8 11.1 -30.1 l11.1 -26.1 14.7 0 14.6 0 4.8 9.5 c19.6 38.4 55.8 65.4 100.7 75.1 11.9 2.6 38.1 2.6 50 0.1 29.5 -6.3 55.1 -19.9 75.4 -40.2 26.8 -26.6 41.2 -59.2 43.2 -97.8 l0.7 -12.7 13 0 13 0 -0.6 18.8 c-0.6 21 -2.4 31.3 -8.3 48.4 -4.6 13.3 -13.7 30.8 -22.2 42.8 -8.6 12.1 -26 29.6 -38.2 38.2 -19.8 14.1 -45.3 24.8 -68.3 28.8 -13.7 2.3 -37.3 3.2 -50.7 2z"/>
  <path d="M282.5 365.6 c-3.7 -1.1 -4 -1.5 -4.3 -5 -0.2 -2.1 0.3 -4.7 1.2 -6 1 -1.6 1.1 -2.7 0.4 -3.4 -0.5 -0.5 -0.8 -3.9 -0.6 -7.6 l0.3 -6.7 -3.5 0.3 -3.5 0.3 -0.3 14.3 -0.3 14.2 -6.4 0 -6.5 0 0 -14.5 0 -14.5 -4 0 -4 0 0 14.5 0 14.5 -12 0 -12 0 0 -7.5 0 -7.5 -3.5 0 -3.5 0 0 7.5 0 7.5 -6.5 0 -6.5 0 0 -20 0 -20 6.5 0 6.5 0 0 6.5 0 6.5 3.5 0 3.5 0 0 -6.5 0 -6.5 27.5 0 27.5 0 0 4.3 0 4.2 7.6 -0.3 c9.9 -0.5 13.4 0.9 13.4 5.2 0 1.7 -0.7 4.1 -1.5 5.3 -1.3 1.8 -1.3 2.2 0 3.3 1.8 1.5 2.1 12 0.5 15 -2 3.6 -11.8 5 -19.5 2.6z"/>
  <path d="M48 295.4 c0 -3 1.6 -6 9.2 -16.5 l9.2 -12.8 77.7 -0.3 c42.8 -0.2 78.1 -0.7 78.5 -1.1 2.1 -2.1 -4 -2.7 -27.1 -2.7 -37.7 -0.1 -45.8 -1.4 -53.8 -8.9 -5.1 -4.7 -7 -9.7 -7.5 -19.7 -0.6 -12.7 1.3 -19 7.7 -25.4 3.8 -3.8 6.3 -5.3 11.7 -7 6.9 -2.1 7.3 -2.2 141.9 -2.7 74.3 -0.3 139.8 -0.3 145.8 0.2 l10.7 0.7 0 3.3 c0 2.5 -2.1 6.2 -9.2 16.4 l-9.3 13 -130.7 0.1 c-81.4 0 -130.9 0.4 -131.3 0.9 -0.9 1.6 4.7 2 36.5 2.4 25.2 0.4 31.3 0.7 35 2.1 7.2 2.7 11.7 6.4 14.5 11.9 2.2 4.4 2.5 6.4 2.5 15.2 0 16.7 -3.9 24.9 -14.4 30.2 -7.5 3.8 -16.3 4.2 -112.8 4.2 l-84.8 0.1 0 -3.6z"/>
  <path d="M264.2 266.8 l0.3 -32.3 38 -0.3 c20.9 -0.2 42.6 0 48.3 0.3 l10.2 0.7 0 3.6 c0 3 -1.4 5.6 -7.6 14 l-7.5 10.2 -26 0 c-22.4 0 -25.9 0.2 -25.9 1.5 0 1.3 4.8 1.5 37 1.5 l37 0 0 3.3 c0 2.7 -2 6.1 -9.3 16.3 l-9.3 12.9 -42.7 0.3 -42.7 0.2 0.2 -32.2z"/>
  <path d="M80.4 242.8 c1.2 -24.4 4.7 -40.8 13.2 -60.8 21 -50 65.4 -86.2 119.9 -98.1 14.1 -3 48.3 -3.8 64.2 -1.5 43.3 6.4 83 29.9 109.2 64.7 l5.9 7.7 5.2 -11.9 5.2 -11.9 14.4 0 14.4 0 0 3.3 c0 1.8 -4.9 14.6 -11.3 29.7 l-11.3 26.5 -14.9 0 -15 0 -3.6 -6.6 c-14.3 -26.2 -39.5 -50.1 -66.2 -62.8 -32.6 -15.5 -68.8 -17.8 -102.7 -6.5 -21.3 7.1 -38.4 17.8 -55.8 34.8 -27.5 26.9 -41.8 58.2 -43.9 96.4 l-0.6 11.2 -13.5 0 -13.5 0 0.7 -14.2z"/>
  <path d="M238.3 171.1 c-3.9 -1.8 -4.3 -2.3 -4.3 -5.6 0 -5.8 1.4 -7.5 6.3 -7.5 l4.2 -0.1 -3.1 -1.3 c-4.1 -1.8 -6.4 -5.2 -6.4 -9.3 0 -3.2 -0.1 -3.3 -4 -3.3 l-4 0 0 14 0 14 -6.5 0 -6.5 0 0 -14 0 -14 -5 0 -5 0 0 -6 0 -6 16.5 0 c14.3 0 16.5 0.2 16.5 1.6 0 1.4 0.2 1.4 2.2 0 3 -2.2 16.8 -2.2 20.8 -0.1 2.5 1.3 3 2.2 3 5.4 0 4.3 -2.3 7.1 -6.1 7.2 l-2.4 0 2.5 1 c1.4 0.6 3.5 2 4.7 3.1 l2.3 2.1 0 -10.1 0 -10.2 5.9 0 5.9 0 0.4 12.5 c0.3 10.1 0.7 12.9 2.1 14.2 1.6 1.6 1.8 1.6 3.5 0 1.4 -1.5 1.8 -4 2 -14.2 l0.4 -12.5 5.9 0 5.9 0 0 15.6 c0 17.8 -0.9 21.2 -6.5 23.8 -4.3 2.1 -14.7 2.1 -19 0 -1.8 -0.8 -4 -3 -4.9 -4.7 -0.8 -1.8 -1.6 -2.5 -1.6 -1.6 0 0.8 -1.4 2.8 -3.1 4.5 -2.7 2.6 -3.8 2.9 -10.7 3.2 -6 0.2 -8.6 -0.2 -11.9 -1.7z"/>
 </g>
 <g fill="#ffffff">
  <path d="M0 250 l0 -250 250 0 250 0 0 250 0 250 -250 0 -250 0 0 -250z m279.9 163.9 c22.8 -3.8 48.4 -14.6 68.1 -28.7 12.2 -8.6 29.6 -26.1 38.2 -38.2 8.5 -12 17.6 -29.5 22.2 -42.8 5.5 -15.9 7.6 -27.6 8.3 -45.5 l0.6 -15.8 -10 0.2 -10 0.1 -0.7 12.6 c-2 38.5 -16.5 71.1 -43.2 97.7 -20.3 20.3 -45.9 33.9 -75.4 40.2 -12.1 2.6 -44 2.5 -56 -0.1 -45 -9.7 -81.2 -36.7 -100.7 -75.1 l-4.8 -9.5 -11.6 0 -11.7 0 -10.7 25.3 c-5.9 13.8 -11 26 -11.3 27 -0.4 1.6 0.4 1.7 10.9 1.5 l11.3 -0.3 5.9 -13.5 c3.2 -7.4 6 -13.6 6.1 -13.8 0.2 -0.1 3.4 4.1 7.2 9.5 9.8 14.1 30 34 43.8 43.2 36.9 24.6 79.2 33.5 123.5 26z m14.3 -50.9 c4.2 -1.2 5.8 -3.4 5.8 -7.8 0 -3.3 -2 -5.5 -7.2 -7.6 -4.6 -1.9 -5.6 -3.5 -3.4 -5.2 1.3 -0.9 2.5 -1 4.8 -0.2 2.6 0.9 3.3 0.8 4.5 -0.8 1.2 -1.6 1.1 -2 -0.9 -3.1 -1.3 -0.7 -4.4 -1.2 -6.9 -1.3 -6.1 0 -9.1 2.7 -8.7 7.8 0.3 3.4 0.8 4 6 6.7 6 3.1 7.5 5.8 3.9 7 -1.1 0.3 -3.6 -0.1 -5.5 -0.9 -3.4 -1.4 -3.6 -1.4 -4.7 0.6 -0.6 1.1 -0.7 2.4 -0.2 2.8 0.6 0.7 5.9 2.5 8.3 2.9 0.3 0.1 2.2 -0.4 4.2 -0.9z m-77.2 -7.5 l0 -7.5 6.5 0 6.5 0 0 7.5 0 7.5 3.5 0 3.5 0 0 -17 0 -17 -3.5 0 -3.5 0 0 6.5 0 6.5 -6.5 0 -6.5 0 0 -6.5 0 -6.5 -3.5 0 -3.5 0 0 17 0 17 3.5 0 3.5 0 0 -7.5z m31 -9.5 l0 -17 -3.5 0 -3.5 0 0 17 0 17 3.5 0 3.5 0 0 -17z m21.2 2.8 l0.3 -14.3 4.8 -0.3 c4.2 -0.3 4.7 -0.5 4.7 -2.8 l0 -2.4 -13 0 -13 0 0 2.5 c0 2.3 0.4 2.5 4.5 2.5 l4.5 0 0 14.5 0 14.5 3.5 0 3.4 0 0.3 -14.2z m-43.2 -53.7 c9.4 -0.7 12.4 -1.3 16.6 -3.4 9.8 -5 14.4 -13.6 14.4 -27.2 0 -12.2 -5.3 -19.7 -17 -24.1 -3.7 -1.4 -10 -1.7 -36.5 -2.2 -17.6 -0.2 -33 -0.8 -34.2 -1.3 -2.5 -0.9 -3.1 -4.7 -1.1 -6.7 0.9 -0.9 31.6 -1.2 131.8 -1.2 l130.5 -0.1 9.4 -13.2 9.3 -13.2 -7.3 -0.8 c-4.1 -0.5 -68.4 -0.6 -142.9 -0.4 -135.3 0.5 -135.5 0.6 -142.4 2.7 -13.3 4.2 -20.5 15.2 -19.4 29.5 1.2 14.5 10.5 22.7 27.7 24.6 4.7 0.5 20 0.9 33.9 0.9 23.9 0 25.3 0.1 27.2 2 2.4 2.4 2.4 3 0.6 5.6 -1.4 1.8 -3.6 1.9 -79.3 2.2 l-77.9 0.3 -9.2 12.8 c-5.1 7.1 -9.2 13.1 -9.2 13.5 0 0.9 161.2 0.6 175 -0.3z m129.7 -12.6 l9.4 -13 -37 -0.3 -37.1 -0.2 0 -4.5 0 -4.5 25.9 0 26 0 7.5 -10.2 c4.2 -5.7 7.6 -10.6 7.6 -11 0 -1.3 -21.5 -1.9 -55.5 -1.6 l-35 0.3 -0.3 29.3 -0.2 29.2 39.7 -0.2 39.7 -0.3 9.3 -13z m-251.4 -39.7 c2.1 -38.2 16.4 -69.5 43.9 -96.4 22 -21.5 43.6 -33 73.8 -39.5 8.6 -1.9 13.6 -2.3 28 -2.3 19.4 0 28.6 1.4 45 6.6 34.7 11 66.2 37.2 83.9 69.7 l3.6 6.6 12 0 11.9 0 10.6 -25 c5.8 -13.7 10.9 -25.8 11.3 -26.7 0.6 -1.7 -0.3 -1.8 -10.7 -1.8 l-11.4 0 -6 13.8 c-3.3 7.5 -6.5 13.7 -7.1 13.7 -0.5 0 -3.2 -3.1 -5.9 -7 -24.5 -34.6 -60.9 -58.4 -103.5 -67.7 -8.9 -1.9 -13.2 -2.2 -33.2 -2.2 -20.3 -0.1 -24.2 0.2 -33.5 2.2 -55.1 12 -99.3 48 -120.4 98.2 -8 19 -11.8 35.7 -13.1 57.8 l-0.7 11.2 10.5 0 10.4 0 0.6 -11.2z m153.7 -76.3 c2.4 -2.3 3 -3.7 3 -7 0 -5 -2 -7.1 -10.2 -10.8 -4.4 -1.9 -5.8 -3.1 -5.8 -4.7 0 -3.3 4.3 -4.7 8.4 -2.7 3.2 1.5 3.5 1.5 5 -0.2 0.9 -1 1.6 -2 1.6 -2.4 0 -1.6 -6.3 -3.7 -10.9 -3.7 -6.7 0 -11.1 3.5 -11.1 8.9 0 5.2 2.2 7.7 9.6 11.1 4.5 2 6.4 3.4 6.4 4.7 0 4.4 -5.8 5.7 -11.2 2.6 -2.8 -1.7 -3 -1.7 -4.4 0.1 -2.1 2.9 -1.8 3.5 2.9 5.7 6 2.8 12.8 2.1 16.7 -1.6z m28.5 1.9 c5.3 -2.5 6.5 -6.3 6.5 -20.8 l0 -12.6 -2.9 0 -2.9 0 -0.4 12.4 c-0.3 13.7 -1.5 16.6 -6.8 16.6 -5.2 0 -6.4 -2.8 -6.8 -16.6 l-0.4 -12.4 -2.9 0 -2.9 0 0 12.6 c0 9.4 0.4 13.4 1.6 15.9 2.8 5.9 11.1 8.2 17.9 4.9z m-62.5 -13.4 l0 -14 5 0 c4.9 0 5 -0.1 5 -3 l0 -3 -13.5 0 -13.5 0 0 3 c0 2.9 0.1 3 5 3 l5 0 0 14 0 14 3.5 0 3.5 0 0 -14z"/>
 </g>
</svg>