<svg width="500" height="500" xmlns="http://www.w3.org/2000/svg" preserveAspectRatio="xMidYMid meet" version="1.0">

 <g>
  <title>Layer 1</title>
  <g id="svg_1" fill="#000000">
   <path id="svg_2" d="m232,419c-46.8,-4.5 -90.3,-28.7 -118.5,-66.1l-7.3,-9.8l-4.9,11.2l-5,11.2l-14.1,0.3l-14.2,0.3l0,-3.9c0,-2.8 3.3,-11.8 11.1,-30.1l11.1,-26.1l14.7,0l14.6,0l4.8,9.5c19.6,38.4 55.8,65.4 100.7,75.1c11.9,2.6 38.1,2.6 50,0.1c29.5,-6.3 55.1,-19.9 75.4,-40.2c26.8,-26.6 41.2,-59.2 43.2,-97.8l0.7,-12.7l13,0l13,0l-0.6,18.8c-0.6,21 -2.4,31.3 -8.3,48.4c-4.6,13.3 -13.7,30.8 -22.2,42.8c-8.6,12.1 -26,29.6 -38.2,38.2c-19.8,14.1 -45.3,24.8 -68.3,28.8c-13.7,2.3 -37.3,3.2 -50.7,2z"/>
   <path id="svg_3" d="m282.5,365.6c-3.7,-1.1 -4,-1.5 -4.3,-5c-0.2,-2.1 0.3,-4.7 1.2,-6c1,-1.6 1.1,-2.7 0.4,-3.4c-0.5,-0.5 -0.8,-3.9 -0.6,-7.6l0.3,-6.7l-3.5,0.3l-3.5,0.3l-0.3,14.3l-0.3,14.2l-6.4,0l-6.5,0l0,-14.5l0,-14.5l-4,0l-4,0l0,14.5l0,14.5l-12,0l-12,0l0,-7.5l0,-7.5l-3.5,0l-3.5,0l0,7.5l0,7.5l-6.5,0l-6.5,0l0,-20l0,-20l6.5,0l6.5,0l0,6.5l0,6.5l3.5,0l3.5,0l0,-6.5l0,-6.5l27.5,0l27.5,0l0,4.3l0,4.2l7.6,-0.3c9.9,-0.5 13.4,0.9 13.4,5.2c0,1.7 -0.7,4.1 -1.5,5.3c-1.3,1.8 -1.3,2.2 0,3.3c1.8,1.5 2.1,12 0.5,15c-2,3.6 -11.8,5 -19.5,2.6z"/>
   <path id="svg_4" d="m48,295.4c0,-3 1.6,-6 9.2,-16.5l9.2,-12.8l77.7,-0.3c42.8,-0.2 78.1,-0.7 78.5,-1.1c2.1,-2.1 -4,-2.7 -27.1,-2.7c-37.7,-0.1 -45.8,-1.4 -53.8,-8.9c-5.1,-4.7 -7,-9.7 -7.5,-19.7c-0.6,-12.7 1.3,-19 7.7,-25.4c3.8,-3.8 6.3,-5.3 11.7,-7c6.9,-2.1 7.3,-2.2 141.9,-2.7c74.3,-0.3 139.8,-0.3 145.8,0.2l10.7,0.7l0,3.3c0,2.5 -2.1,6.2 -9.2,16.4l-9.3,13l-130.7,0.1c-81.4,0 -130.9,0.4 -131.3,0.9c-0.9,1.6 4.7,2 36.5,2.4c25.2,0.4 31.3,0.7 35,2.1c7.2,2.7 11.7,6.4 14.5,11.9c2.2,4.4 2.5,6.4 2.5,15.2c0,16.7 -3.9,24.9 -14.4,30.2c-7.5,3.8 -16.3,4.2 -112.8,4.2l-84.8,0.1l0,-3.6z"/>
   <path id="svg_5" d="m264.2,266.8l0.3,-32.3l38,-0.3c20.9,-0.2 42.6,0 48.3,0.3l10.2,0.7l0,3.6c0,3 -1.4,5.6 -7.6,14l-7.5,10.2l-26,0c-22.4,0 -25.9,0.2 -25.9,1.5c0,1.3 4.8,1.5 37,1.5l37,0l0,3.3c0,2.7 -2,6.1 -9.3,16.3l-9.3,12.9l-42.7,0.3l-42.7,0.2l0.2,-32.2z"/>
   <path id="svg_6" d="m80.4,242.8c1.2,-24.4 4.7,-40.8 13.2,-60.8c21,-50 65.4,-86.2 119.9,-98.1c14.1,-3 48.3,-3.8 64.2,-1.5c43.3,6.4 83,29.9 109.2,64.7l5.9,7.7l5.2,-11.9l5.2,-11.9l14.4,0l14.4,0l0,3.3c0,1.8 -4.9,14.6 -11.3,29.7l-11.3,26.5l-14.9,0l-15,0l-3.6,-6.6c-14.3,-26.2 -39.5,-50.1 -66.2,-62.8c-32.6,-15.5 -68.8,-17.8 -102.7,-6.5c-21.3,7.1 -38.4,17.8 -55.8,34.8c-27.5,26.9 -41.8,58.2 -43.9,96.4l-0.6,11.2l-13.5,0l-13.5,0l0.7,-14.2z"/>
   <path id="svg_7" d="m238.3,171.1c-3.9,-1.8 -4.3,-2.3 -4.3,-5.6c0,-5.8 1.4,-7.5 6.3,-7.5l4.2,-0.1l-3.1,-1.3c-4.1,-1.8 -6.4,-5.2 -6.4,-9.3c0,-3.2 -0.1,-3.3 -4,-3.3l-4,0l0,14l0,14l-6.5,0l-6.5,0l0,-14l0,-14l-5,0l-5,0l0,-6l0,-6l16.5,0c14.3,0 16.5,0.2 16.5,1.6c0,1.4 0.2,1.4 2.2,0c3,-2.2 16.8,-2.2 20.8,-0.1c2.5,1.3 3,2.2 3,5.4c0,4.3 -2.3,7.1 -6.1,7.2l-2.4,0l2.5,1c1.4,0.6 3.5,2 4.7,3.1l2.3,2.1l0,-10.1l0,-10.2l5.9,0l5.9,0l0.4,12.5c0.3,10.1 0.7,12.9 2.1,14.2c1.6,1.6 1.8,1.6 3.5,0c1.4,-1.5 1.8,-4 2,-14.2l0.4,-12.5l5.9,0l5.9,0l0,15.6c0,17.8 -0.9,21.2 -6.5,23.8c-4.3,2.1 -14.7,2.1 -19,0c-1.8,-0.8 -4,-3 -4.9,-4.7c-0.8,-1.8 -1.6,-2.5 -1.6,-1.6c0,0.8 -1.4,2.8 -3.1,4.5c-2.7,2.6 -3.8,2.9 -10.7,3.2c-6,0.2 -8.6,-0.2 -11.9,-1.7z"/>
  </g>
 </g>
</svg>